<svg xmlns="http://www.w3.org/2000/svg" width="238" height="139.56" viewBox="0 0 238 139.56"><defs><style>.a{fill:#fff;}.b{fill:#0d146c;}.c{fill:#969b9c;}.d{fill:none;stroke:#969b9c;stroke-miterlimit:10;}</style></defs><g transform="translate(-16.5 -227.5)"><path class="a" d="M33.334,450" transform="translate(-9.842 -130.083)"/><path class="a" d="M33.334,450" transform="translate(-9.842 -130.083)"/><path class="b" d="M122.871,326.348a8.809,8.809,0,0,1-4.984-6.646l-14.122-81.2H91.1L46.86,319.079s-2.284,4.569-4.984,6.023c0,0,.415,1.246-11.076,1.246L29,335.486H69.5l1.661-9.138H58.906s-3.946-.623-1.661-4.984L66.8,303.919h32.19l2.908,16.822s2.077,4.361-3.738,5.607H86.527l-2.077,9.138h44.443l1.869-9.138ZM71.99,293.95,91.511,257.4l5.815,36.551Z" transform="translate(-7.308 -6.431)"/><path class="c" d="M156.83,302.5,142.5,328.875h18.276Zm-1.246,5.815,3.323,18.691H145.2Z" transform="translate(-73.665 -43.848)"/><path class="d" d="M29,443" transform="translate(-7.308 -125.99)"/><path class="c" d="M117.017,315.141s-1.869,1.246-2.908-4.984L99.779,227.5H81.5L35.191,311.4a17.013,17.013,0,0,1-3.115,3.531s-3.531.623-11.838,0L16.5,333.209H65.512l3.323-17.653H54.505l7.476-14.122H88.149l2.284,13.914H75.9l-3.323,17.86h52.75l3.115-18.068Zm6.438,16.407H74.235l2.7-14.538H92.51l-2.7-17.445-28.452.208L51.805,317.01H66.551l-2.492,14.538H18.577l3.115-14.538H30.83a7.644,7.644,0,0,0,4.984-3.323l46.312-84.318H98.533l14.33,82.864s.415,4.154,3.738,4.777h9.969Z"/><path class="c" d="M252.031,309,248.5,327.068h10.592c2.077,2.077,2.284,7.269,2.284,7.269l6.646,80.372H286.3l24.506-48.6,5.4,48.6h18.276l37.382-79.126c3.738-7.892,6.023-8.515,6.023-8.515h8.93L390.137,309Zm133.33,16.2H378.3a9.049,9.049,0,0,0-5.192,4.154l-39.874,83.9H317.657l-5.607-53.581-27,53.581H269.476l-6.438-80.579s-.415-5.815-3.946-7.061l-8.515-.415,2.908-14.538h44.443L295.435,325.2H285.259s-2.907.208-2.492,3.946l3.323,49.012,23.26-45.482V328s1.038-2.8-5.192-2.8l-7.684-.208,2.7-14.33h45.9l-2.7,14.538H331.779s-3.323.208-3.115,2.8l4.777,50.154,23.052-49.947s1.869-3.011-1.869-3.011h-9.969l2.7-14.538h40.913Zm-77.672,1.869v5.607L287.751,371.3l-3.115-44.236Zm47.351,0L334.479,371.3l-3.946-44.236Z" transform="translate(-135.637 -47.648)"/><path class="b" d="M291.529,328.553s-3.946,1.246-3.946,4.154l3.946,61.681,28.037-55.866v-6.646a7,7,0,0,0-5.815-3.323h-7.269L308.351,319h41.12l-2.077,9.553h-9.969s-4.154.208-3.946,5.3l5.607,60.538,27.621-60.538s2.492-4.673-2.077-5.3h-9.553L357.155,319h35.513l-2.077,9.553h-6.23a17.405,17.405,0,0,0-7.269,7.061L338.88,416.609H327.873l-6.853-60.019L290.49,416.609H278.86l-6.023-78.087s-.623-9.969-6.438-9.969H261L262.869,319h39.459l-1.869,9.553" transform="translate(-142.945 -53.495)"/></g></svg>