<?xml version="1.0" encoding="UTF-8" standalone="no"?>
<!-- Created with Inkscape (http://www.inkscape.org/) -->

<svg
   version="1.1"
   id="svg824"
   width="240"
   height="240"
   viewBox="0 0 240 240"
   sodipodi:docname="Lindsay Logo.svg"
   inkscape:export-filename="C:\Users\bhoip\Desktop\logo\TestExteranlUpload\logo.png"
   inkscape:export-xdpi="459.28"
   inkscape:export-ydpi="459.28"
   inkscape:version="1.1.1 (3bf5ae0d25, 2021-09-20)"
   xmlns:inkscape="http://www.inkscape.org/namespaces/inkscape"
   xmlns:sodipodi="http://sodipodi.sourceforge.net/DTD/sodipodi-0.dtd"
   xmlns="http://www.w3.org/2000/svg"
   xmlns:svg="http://www.w3.org/2000/svg">
  <defs
     id="defs828">
    <rect
       x="144.78098"
       y="21.927409"
       width="29.737171"
       height="46.257822"
       id="rect41714" />
  </defs>
  <sodipodi:namedview
     id="namedview826"
     pagecolor="#ffffff"
     bordercolor="#666666"
     borderopacity="1.0"
     inkscape:pageshadow="2"
     inkscape:pageopacity="0.0"
     inkscape:pagecheckerboard="0"
     showgrid="false"
     inkscape:zoom="3.3291667"
     inkscape:cx="168.51064"
     inkscape:cy="59.624531"
     inkscape:window-width="1920"
     inkscape:window-height="991"
     inkscape:window-x="-9"
     inkscape:window-y="-9"
     inkscape:window-maximized="1"
     inkscape:current-layer="g830" />
  <g
     inkscape:groupmode="layer"
     inkscape:label="Image"
     id="g830">
    <path
       style="fill:#22adcc;fill-opacity:1;stroke-width:7.03748;stroke-miterlimit:4;stroke-dasharray:none"
       d="m 179.83112,114.93683 c -2.4411,-1.17755 -5.02768,-4.54956 -6.90006,-8.99529 -1.26735,-3.00914 -2.67712,-7.743857 -2.99593,-10.061813 -0.69912,-5.083066 1.35458,-9.315818 5.47685,-11.288004 1.67369,-0.800731 1.9829,-0.871025 3.74848,-0.852177 1.05837,0.0113 2.19318,0.127402 2.52178,0.258008 0.45477,0.180743 0.16034,0.210344 -1.23255,0.123919 -3.03887,-0.188551 -5.52412,0.964247 -7.48985,3.474204 -1.44964,1.850986 -2.06395,3.543129 -2.20408,6.071242 -0.0994,1.79393 -0.0141,2.467626 0.61653,4.867265 1.10318,4.197736 2.07601,6.870636 3.6174,9.938936 2.30457,4.58749 4.57731,6.52825 8.007,6.83742 l 1.67293,0.1508 -1.80525,0.034 c -1.5023,0.0283 -2.01132,-0.0655 -3.03325,-0.55844 z m 9.2598,0.22403 c -1.48916,-0.51269 -1.75845,-0.83766 -0.35541,-0.42891 3.24561,0.94555 6.49587,-0.40177 9.23869,-3.82969 2.25711,-2.82088 4.90267,-8.75473 5.79752,-13.003507 1.55827,-7.398828 -1.59814,-12.816557 -7.90815,-13.573675 -0.8989,-0.107856 -2.27964,-0.161254 -3.0683,-0.118662 -1.30408,0.07043 -1.3582,0.05578 -0.59748,-0.161728 0.46006,-0.131543 1.85815,-0.244942 3.10687,-0.251998 4.80566,-0.02715 8.01264,2.159716 9.57927,6.532183 0.78294,2.185187 0.74111,6.183331 -0.0972,9.287843 -1.85334,6.863724 -6.25895,13.426804 -10.19907,15.193634 -1.64641,0.73829 -3.95041,0.88688 -5.49677,0.35451 z m -9.06216,-27.736787 c 0.1299,-0.125305 2.03382,-0.295688 4.23094,-0.378628 3.09492,-0.116832 4.3292,-0.258878 5.47946,-0.630602 0.81659,-0.26389 2.05336,-0.540388 2.74838,-0.614439 1.20386,-0.128263 1.15053,-0.09421 -1.12621,0.719302 -2.36383,0.844627 -2.43996,0.855459 -6.97932,0.993068 -3.01258,0.09132 -4.50829,0.06085 -4.35325,-0.0887 z m 7.06578,-3.220056 c -0.34024,-1.255434 -2.54042,-3.85961 -3.35914,-3.97593 -0.3852,-0.05473 -3.10813,-1.785151 -3.90532,-2.481845 -0.66428,-0.580531 -0.67361,-0.980402 -0.0461,-1.976729 l 0.48982,-0.777736 0.66208,1.009083 c 0.36415,0.554995 1.69495,2.064754 2.95734,3.355019 2.24117,2.290675 3.63767,4.357967 3.4679,5.133686 -0.0551,0.251695 -0.14791,0.15226 -0.26656,-0.285548 z m -4.61821,-5.516809 c -0.78793,-0.795255 -1.56529,-1.686879 -1.72748,-1.981386 -0.24133,-0.438217 -0.35883,-0.484098 -0.64695,-0.252622 -0.19364,0.155565 -0.32057,0.413847 -0.28208,0.573959 0.0624,0.259371 3.7104,3.105967 3.98042,3.105967 0.0598,0 -0.53599,-0.650663 -1.32391,-1.445918 z m 5.50237,3.431053 c -1.24364,-0.56053 -1.67222,-1.146221 -1.41433,-1.932776 0.29035,-0.885573 3.24625,-2.236025 5.87241,-2.682914 0.48892,-0.0832 0.19102,0.08316 -0.71697,0.400391 -3.52138,1.230279 -5.01667,2.29481 -4.5102,3.210904 0.56761,1.026665 3.1555,1.432497 4.58182,0.718519 1.36936,-0.685469 2.08894,-1.315203 4.27458,-3.740852 l 2.15226,-2.388612 -4.86241,0.07514 c -4.80455,0.07425 -4.87565,0.08268 -5.97563,0.708632 -0.61227,0.348419 -1.34414,0.921003 -1.62637,1.272408 -0.35729,0.444858 -0.43705,0.486324 -0.26259,0.136521 0.40665,-0.815351 1.95742,-1.913626 3.24117,-2.295427 0.75944,-0.225867 2.93698,-0.431436 5.97475,-0.564042 2.62888,-0.114757 5.10242,-0.279907 5.49676,-0.367 0.71619,-0.158177 0.71592,-0.157493 -0.24404,0.628524 -0.52855,0.432781 -2.17856,2.005603 -3.66668,3.495161 -3.88749,3.891241 -5.56796,4.563351 -8.31453,3.325419 z m -2.93173,-3.276822 c 0.0115,-0.269506 0.0681,-0.324325 0.14439,-0.139772 0.069,0.167003 0.0606,0.36654 -0.0189,0.443415 -0.0794,0.07687 -0.1359,-0.05976 -0.12552,-0.303643 z"
       id="path932" />
    <text
       xml:space="preserve"
       style="font-style:normal;font-variant:normal;font-weight:normal;font-stretch:normal;font-size:26.6667px;line-height:1.25;font-family:'Franklin Gothic Demi';-inkscape-font-specification:'Franklin Gothic Demi';fill:#ffffff;fill-opacity:1;stroke:none"
       x="45.65707"
       y="115.73968"
       id="text3036"><tspan
         sodipodi:role="line"
         x="45.65707"
         y="115.73968"
         id="tspan3038"
         style="font-style:normal;font-variant:normal;font-weight:normal;font-stretch:normal;font-size:26.6667px;font-family:'Franklin Gothic Demi';-inkscape-font-specification:'Franklin Gothic Demi';fill:#ffffff;fill-opacity:1">Hoipkemier</tspan></text>
    <text
       xml:space="preserve"
       id="text41712"
       style="fill:black;fill-opacity:1;line-height:1.25;stroke:none;font-family:sans-serif;font-style:normal;font-weight:normal;font-size:40px;white-space:pre;shape-inside:url(#rect41714)" />
    <path
       style="fill:#22adcc;fill-opacity:1;stroke-width:0.385462"
       d="m 46.829611,139.50844 c 0.169366,-0.21776 1.839524,-2.09679 3.711464,-4.17563 1.87194,-2.07881 3.520643,-3.93302 3.663784,-4.12042 0.143142,-0.18742 -1.492464,-2.27909 -3.634681,-4.64817 -2.142217,-2.36908 -3.900319,-4.41056 -3.906893,-4.53661 -0.0066,-0.12606 19.752811,-0.22918 43.909743,-0.22918 24.156932,0 43.916322,0.10315 43.909752,0.22918 -0.007,0.12605 -1.76468,2.16753 -3.9069,4.53661 -2.14221,2.36908 -3.77782,4.46075 -3.63467,4.64817 0.14313,0.1874 1.79184,2.04161 3.66378,4.12042 1.87194,2.07884 3.54209,3.95787 3.71146,4.17563 0.17305,0.22249 -18.98756,0.39592 -43.743422,0.39592 -24.755859,0 -43.916471,-0.17343 -43.743417,-0.39592 z"
       id="path49046" />
    <rect
       style="fill:#22adcc;fill-opacity:1;stroke-width:0.99266"
       id="rect49873"
       width="81.101379"
       height="17.758945"
       x="125.25657"
       y="121.91564" />
    <text
       xml:space="preserve"
       style="font-style:normal;font-variant:normal;font-weight:normal;font-stretch:normal;font-size:26.6667px;line-height:1.25;font-family:'Franklin Gothic Demi';-inkscape-font-specification:'Franklin Gothic Demi';fill:#ffffff;fill-opacity:1;stroke:none"
       x="45.931168"
       y="94.697922"
       id="text3036-5"><tspan
         sodipodi:role="line"
         x="45.931168"
         y="94.697922"
         id="tspan3038-3"
         style="font-style:normal;font-variant:normal;font-weight:normal;font-stretch:normal;font-size:26.6667px;font-family:'Franklin Gothic Demi';-inkscape-font-specification:'Franklin Gothic Demi';fill:#ffffff;fill-opacity:1">Lindsay</tspan></text>
  </g>
  <g
     inkscape:groupmode="layer"
     id="layer1"
     inkscape:label="for school board">
    <text
       xml:space="preserve"
       style="font-style:normal;font-weight:normal;font-size:15.6394px;line-height:1.25;font-family:sans-serif;fill:#000000;fill-opacity:1;stroke:none;stroke-width:0.733098"
       x="57.552425"
       y="136.14116"
       id="text27340"><tspan
         sodipodi:role="line"
         id="tspan27338"
         x="57.552425"
         y="136.14116"
         style="font-style:normal;font-variant:normal;font-weight:normal;font-stretch:normal;font-size:15.6394px;font-family:'Javanese Text';-inkscape-font-specification:'Javanese Text';stroke-width:0.733098">For AW School Board</tspan></text>
  </g>
</svg>
