<?xml version="1.0" encoding="UTF-8" standalone="no"?>
<!-- Created with Inkscape (http://www.inkscape.org/) -->

<svg
   width="210mm"
   height="297mm"
   viewBox="0 0 210 297"
   version="1.1"
   id="svg5"
   inkscape:version="1.1.1 (3bf5ae0d25, 2021-09-20)"
   sodipodi:docname="Lindsay logo black.svg"
   inkscape:export-filename="C:\Users\bhoip\Desktop\logo\logo_all_black.png"
   inkscape:export-xdpi="3623.6399"
   inkscape:export-ydpi="3623.6399"
   xmlns:inkscape="http://www.inkscape.org/namespaces/inkscape"
   xmlns:sodipodi="http://sodipodi.sourceforge.net/DTD/sodipodi-0.dtd"
   xmlns="http://www.w3.org/2000/svg"
   xmlns:svg="http://www.w3.org/2000/svg">
  <sodipodi:namedview
     id="namedview7"
     pagecolor="#ffffff"
     bordercolor="#666666"
     borderopacity="1.0"
     inkscape:pageshadow="2"
     inkscape:pageopacity="0.0"
     inkscape:pagecheckerboard="0"
     inkscape:document-units="mm"
     showgrid="false"
     showguides="true"
     inkscape:guide-bbox="true"
     inkscape:zoom="2.950505"
     inkscape:cx="279.61315"
     inkscape:cy="444.8391"
     inkscape:window-width="1920"
     inkscape:window-height="991"
     inkscape:window-x="-9"
     inkscape:window-y="-9"
     inkscape:window-maximized="1"
     inkscape:current-layer="layer1">
    <sodipodi:guide
       position="80.078803,200.51088"
       orientation="1,0"
       id="guide68870" />
  </sodipodi:namedview>
  <defs
     id="defs2" />
  <g
     inkscape:label="Layer 1"
     inkscape:groupmode="layer"
     id="layer1">
    <text
       xml:space="preserve"
       style="font-style:normal;font-weight:normal;font-size:7.05556px;line-height:1.25;font-family:sans-serif;fill:#000000;fill-opacity:1;stroke:none;stroke-width:0.264583"
       x="64.834244"
       y="119.08694"
       id="text2102"><tspan
         sodipodi:role="line"
         id="tspan2100"
         style="font-style:normal;font-variant:normal;font-weight:normal;font-stretch:normal;font-size:7.05556px;font-family:'Segoe Script';-inkscape-font-specification:'Segoe Script';stroke-width:0.264583;fill:#000000;fill-opacity:1"
         x="64.834244"
         y="119.08694">Lindsay</tspan></text>
    <text
       xml:space="preserve"
       style="font-style:normal;font-weight:normal;font-size:10.5833px;line-height:1.25;font-family:sans-serif;fill:#000000;fill-opacity:1;stroke:none;stroke-width:0.264583"
       x="54.163048"
       y="128.23369"
       id="text42276"
       inkscape:transform-center-x="0.35869565"
       inkscape:transform-center-y="0.089673913"><tspan
         sodipodi:role="line"
         id="tspan42274"
         style="font-style:normal;font-variant:normal;font-weight:normal;font-stretch:normal;font-family:'Tw Cen MT Condensed Extra Bold';-inkscape-font-specification:'Tw Cen MT Condensed Extra Bold, ';fill:#000000;fill-opacity:1;stroke-width:0.264583"
         x="54.163048"
         y="128.23369">HOIPKEMIER</tspan></text>
    <g
       id="g72773"
       transform="matrix(0.19552978,0,0,0.19552978,43.691834,90.66973)"
       style="fill:#000000;fill-opacity:1">
      <path
         style="fill:#000000;fill-opacity:1;stroke-width:1.33333"
         d="m 138.41667,101.75585 c 0.96249,-0.38517 2.11249,-0.3378 2.55556,0.10526 0.44305,0.44306 -0.34445,0.75819 -1.75,0.7003 -1.55327,-0.064 -1.8692,-0.37993 -0.80556,-0.80556 z"
         id="path72777" />
      <path
         style="fill:#000000;fill-opacity:1;stroke-width:1.33333"
         d="m 73.402807,155.21328 c -0.177696,-3.71747 5.462197,-22.36067 8.698012,-28.7521 C 86.949871,116.88326 102.69492,101.37851 112,97.018314 c 7.7937,-3.651987 19.82261,-6.351649 28.3011,-6.351649 7.93642,0 24.53002,3.80676 32.85645,7.537645 13.16544,5.89914 12.36809,5.84053 21.5258,1.58232 17.66275,-8.212932 35.29595,-10.727128 50.89473,-7.256728 23.58517,5.2472 42.09931,23.427958 49.60534,48.712098 3.18755,10.73724 2.54613,13.8753 -1.0492,5.1332 -4.56776,-11.10656 -10.74987,-20.11837 -18.92972,-27.59429 -20.91665,-19.116643 -49.0493,-21.943079 -80.03458,-8.04093 l -9.03332,4.05298 -7.40162,-3.24732 c -26.55623,-11.650991 -49.23083,-12.310494 -69.6914,-2.02701 -6.91489,3.47543 -21.832693,17.74454 -26.018541,24.88715 -1.921612,3.27898 -4.857096,9.62908 -6.5233,14.11134 -1.666203,4.48225 -3.060723,7.49552 -3.098932,6.69616 z M 165.99035,82.971602 C 135.69444,72.647387 119.89486,53.694632 116.82985,24 c -1.11926,-10.843692 -0.26438,-11.56837 10.51021,-8.909472 13.81069,3.408126 25.61869,9.869344 34.84044,19.064331 11.36357,11.330581 16.51684,22.725639 19.82838,43.845139 l 0.83628,5.333334 -14.08925,-13.976177 c -7.74908,-7.686898 -14.08924,-13.482912 -14.08924,-12.880035 0,0.602879 5.41793,7.642159 12.03985,15.642844 6.62192,8.000685 11.57192,14.533922 11,14.518305 -0.57192,-0.01561 -5.8442,-1.665619 -11.71617,-3.666667 z m 28.22288,1.9427 c 0.51223,-0.869533 3.52381,-4.645658 6.69239,-8.391388 8.46088,-10.002007 7.01772,-10.358039 -2.74896,-0.678178 l -8.51002,8.434368 1.24567,-7.139552 c 1.68923,-9.681797 6.90665,-20.101452 12.54369,-25.050838 6.17827,-5.424591 16.34188,-10.475141 23.32803,-11.592271 l 5.65108,-0.903642 -0.75917,7.355658 c -1.95274,18.920104 -14.27579,32.635522 -34.54558,38.448819 -2.81784,0.808147 -3.58262,0.680651 -2.89713,-0.482976 z"
         id="path72775" />
    </g>
    <g
       id="g835"
       transform="matrix(0.3153398,0,0,0.22090048,40.051255,101.94653)"
       style="fill:#000000"
       inkscape:export-filename="C:\Users\bhoip\Desktop\logo\logo_all_black.png"
       inkscape:export-xdpi="3631.5901"
       inkscape:export-ydpi="3631.5901">
      <path
         style="fill:#000000;fill-opacity:1;stroke-width:0.385462"
         d="m 46.829611,139.50844 c 0.169366,-0.21776 1.839524,-2.09679 3.711464,-4.17563 1.87194,-2.07881 3.520643,-3.93302 3.663784,-4.12042 0.143142,-0.18742 -1.492464,-2.27909 -3.634681,-4.64817 -2.142217,-2.36908 -3.900319,-4.41056 -3.906893,-4.53661 -0.0066,-0.12606 19.752811,-0.22918 43.909743,-0.22918 24.156932,0 43.916322,0.10315 43.909752,0.22918 -0.007,0.12605 -1.76468,2.16753 -3.9069,4.53661 -2.14221,2.36908 -3.77782,4.46075 -3.63467,4.64817 0.14313,0.1874 1.79184,2.04161 3.66378,4.12042 1.87194,2.07884 3.54209,3.95787 3.71146,4.17563 0.17305,0.22249 -18.98756,0.39592 -43.743422,0.39592 -24.755859,0 -43.916471,-0.17343 -43.743417,-0.39592 z"
         id="path49046" />
      <rect
         style="fill:#000000;fill-opacity:1;stroke-width:0.99266"
         id="rect49873"
         width="81.101379"
         height="17.758945"
         x="125.25657"
         y="121.91564" />
    </g>
  </g>
  <g
     inkscape:groupmode="layer"
     id="layer2"
     inkscape:label="For School Board">
    <text
       xml:space="preserve"
       style="font-style:normal;font-weight:normal;font-size:3.4092px;line-height:1.25;font-family:sans-serif;fill:#ffffff;fill-opacity:1;stroke:none;stroke-width:0.232445"
       x="54.33881"
       y="140.46237"
       id="text56350"
       transform="scale(1.0645515,0.93936273)"><tspan
         sodipodi:role="line"
         id="tspan56348"
         style="font-style:normal;font-variant:normal;font-weight:normal;font-stretch:normal;font-size:3.4092px;font-family:sans-serif;-inkscape-font-specification:sans-serif;fill:#ffffff;fill-opacity:1;stroke-width:0.232445"
         x="54.33881"
         y="140.46237">FOR AW SCHOOL BOARD</tspan></text>
  </g>
</svg>
